<svg width="203" height="86" viewBox="0 0 203 86" fill="none" xmlns="http://www.w3.org/2000/svg">
<path d="M37.45 84V88H41.45V84H37.45ZM37.45 2.4H41.45V-1.6H37.45V2.4ZM20.65 2.4V-1.6H16.65V2.4H20.65ZM0.85001 17.16V13.16H-3.14999V17.16H0.85001ZM0.85001 32.4H-3.14999V36.4H0.85001V32.4ZM18.13 32.4H22.13V28.4H18.13V32.4ZM18.13 84H14.13V88H18.13V84ZM41.45 84V2.4H33.45V84H41.45ZM37.45 -1.6H20.65V6.4H37.45V-1.6ZM16.65 2.4C16.65 7.1259 15.7708 9.2355 14.2689 10.4832C12.5045 11.949 8.82679 13.16 0.85001 13.16V21.16C9.07323 21.16 15.2955 20.031 19.3811 16.6368C23.7292 13.0245 24.65 7.75409 24.65 2.4H16.65ZM-3.14999 17.16V32.4H4.85001V17.16H-3.14999ZM0.85001 36.4H18.13V28.4H0.85001V36.4ZM14.13 32.4V84H22.13V32.4H14.13ZM18.13 88H37.45V80H18.13V88ZM87.4469 89.8C99.5114 89.8 109.288 85.7074 115.936 77.393C122.465 69.228 125.527 57.5467 125.527 43.2H117.527C117.527 56.5733 114.649 66.192 109.688 72.397C104.846 78.4526 97.5824 81.8 87.4469 81.8V89.8ZM125.527 43.2C125.527 28.8533 122.465 17.172 115.936 9.00701C109.288 0.692572 99.5114 -3.40001 87.4469 -3.40001V4.59999C97.5824 4.59999 104.846 7.94742 109.688 14.003C114.649 20.208 117.527 29.8267 117.527 43.2H125.527ZM87.4469 -3.40001C75.3824 -3.40001 65.6059 0.692572 58.9578 9.00701C52.4292 17.172 49.3669 28.8533 49.3669 43.2H57.3669C57.3669 29.8267 60.2445 20.208 65.206 14.003C70.0479 7.94742 77.3114 4.59999 87.4469 4.59999V-3.40001ZM49.3669 43.2C49.3669 57.5467 52.4292 69.228 58.9578 77.393C65.6059 85.7074 75.3824 89.8 87.4469 89.8V81.8C77.3114 81.8 70.0479 78.4526 65.206 72.397C60.2445 66.192 57.3669 56.5733 57.3669 43.2H49.3669ZM87.4469 66.2C85.3518 66.2 83.7526 65.7809 82.497 65.0834C81.2522 64.3919 80.124 63.3044 79.1454 61.6203C77.1044 58.108 75.8469 52.2248 75.8469 43.2H67.8469C67.8469 52.6552 69.1093 60.272 72.2284 65.6397C73.8298 68.3956 75.9416 70.5931 78.6118 72.0766C81.2712 73.5541 84.2619 74.2 87.4469 74.2V66.2ZM75.8469 43.2C75.8469 34.2405 77.1029 28.3516 79.1483 24.8196C80.1304 23.1238 81.2628 22.0251 82.5097 21.3264C83.7654 20.6228 85.3609 20.2 87.4469 20.2V12.2C84.2529 12.2 81.2584 12.8572 78.5991 14.3474C75.931 15.8424 73.8234 18.0512 72.2254 20.8104C69.1109 26.1884 67.8469 33.7995 67.8469 43.2H75.8469ZM87.4469 20.2C89.5329 20.2 91.1284 20.6228 92.3841 21.3264C93.631 22.0251 94.7634 23.1238 95.7454 24.8196C97.7909 28.3516 99.0469 34.2405 99.0469 43.2H107.047C107.047 33.7995 105.783 26.1884 102.668 20.8104C101.07 18.0512 98.9628 15.8424 96.2947 14.3474C93.6354 12.8572 90.6409 12.2 87.4469 12.2V20.2ZM99.0469 43.2C99.0469 52.1595 97.7909 58.0484 95.7454 61.5804C94.7634 63.2762 93.631 64.3749 92.3841 65.0736C91.1284 65.7772 89.5329 66.2 87.4469 66.2V74.2C90.6409 74.2 93.6354 73.5428 96.2947 72.0526C98.9628 70.5576 101.07 68.3488 102.668 65.5896C105.783 60.2116 107.047 52.6005 107.047 43.2H99.0469ZM148.013 84V88H150.259L151.428 86.0822L148.013 84ZM164.693 56.64L168.108 54.5578L164.693 48.9557L161.278 54.5578L164.693 56.64ZM181.373 84L177.958 86.0822L179.127 88H181.373V84ZM202.733 84V88H210.042L206.102 81.8438L202.733 84ZM175.853 42L172.484 39.8438L171.104 42L172.484 44.1562L175.853 42ZM202.733 -5.72205e-06L206.102 2.15621L210.042 -4.00001H202.733V-5.72205e-06ZM181.373 -5.72205e-06V-4.00001H179.122L177.954 -2.07553L181.373 -5.72205e-06ZM164.693 27.48L161.274 29.5555L164.693 35.1889L168.113 29.5555L164.693 27.48ZM148.013 -5.72205e-06L151.433 -2.07553L150.264 -4.00001H148.013V-5.72205e-06ZM126.653 -5.72205e-06V-4.00001H119.344L123.284 2.15621L126.653 -5.72205e-06ZM153.533 42L156.902 44.1562L158.282 42L156.902 39.8438L153.533 42ZM126.653 84L123.284 81.8438L119.344 88H126.653V84ZM151.428 86.0822L168.108 58.7222L161.278 54.5578L144.598 81.9178L151.428 86.0822ZM161.278 58.7222L177.958 86.0822L184.788 81.9178L168.108 54.5578L161.278 58.7222ZM181.373 88H202.733V80H181.373V88ZM206.102 81.8438L179.222 39.8438L172.484 44.1562L199.364 86.1562L206.102 81.8438ZM179.222 44.1562L206.102 2.15621L199.364 -2.15622L172.484 39.8438L179.222 44.1562ZM202.733 -4.00001H181.373V3.99999H202.733V-4.00001ZM177.954 -2.07553L161.274 25.4045L168.113 29.5555L184.793 2.07552L177.954 -2.07553ZM168.113 25.4045L151.433 -2.07553L144.594 2.07552L161.274 29.5555L168.113 25.4045ZM148.013 -4.00001H126.653V3.99999H148.013V-4.00001ZM123.284 2.15621L150.164 44.1562L156.902 39.8438L130.022 -2.15622L123.284 2.15621ZM150.164 39.8438L123.284 81.8438L130.022 86.1562L156.902 44.1562L150.164 39.8438ZM126.653 88H148.013V80H126.653V88Z" fill="#9F2122"/>
</svg>
