<svg width="146" height="86" viewBox="0 0 146 86" fill="none" xmlns="http://www.w3.org/2000/svg">
<path d="M31.09 85.8C50.89 85.8 63.13 72.84 63.13 55.44C63.13 39.36 52.81 28.32 36.73 28.32C29.89 28.32 23.53 30.24 19.33 34.8V17.4H58.81V2.4H1.93001V49.92H18.97C21.37 44.28 25.69 41.88 32.17 41.88C39.85 41.88 44.53 47.52 44.53 55.8C44.53 64.56 39.61 70.2 31.09 70.2C24.61 70.2 19.45 66.96 18.85 61.08H0.0100099C1.09001 76.2 12.85 85.8 31.09 85.8ZM90.4038 84L107.084 56.64L123.764 84H145.124L118.244 42L145.124 -5.72205e-06H123.764L107.084 27.48L90.4038 -5.72205e-06H69.0438L95.9238 42L69.0438 84H90.4038Z" fill="#99182A"/>
</svg>
