<svg width="149" height="20" viewBox="0 0 149 20" fill="none" xmlns="http://www.w3.org/2000/svg">
<g clip-path="url(#clip0_1159_391)">
<path d="M32.7659 17.2852C29.8189 17.3032 27.152 15.5407 26.012 12.822C24.8719 10.1033 25.4833 6.96532 27.5612 4.87425C29.6387 2.78317 32.7719 2.15237 35.4963 3.27646C38.2208 4.40055 39.9986 7.05766 39.9986 10.0058C40.0054 14.0117 36.7703 17.2676 32.7659 17.2852ZM32.7659 0.000137904C28.7208 -0.0210487 25.0621 2.40062 23.4997 6.13305C21.9369 9.86588 22.7788 14.1728 25.6315 17.0417C28.4847 19.9107 32.7855 20.7754 36.5249 19.2315C40.2643 17.6877 42.7038 14.0404 42.7038 9.9938C42.7038 4.49449 38.2627 0.0289197 32.7659 0.000137904Z" fill="#AEAEAE"/>
<path d="M69.6685 0.575721C69.5766 0.576521 69.4919 0.62489 69.4447 0.70364L59.2031 14.6348L48.9614 0.70364C48.9135 0.623691 48.8267 0.574922 48.7336 0.575721C48.585 0.575721 48.4639 0.694846 48.4619 0.843551V19.4038H51.1712V8.44273L59.0432 19.076C59.0828 19.1236 59.1411 19.1511 59.2031 19.1511C59.265 19.1511 59.3234 19.1236 59.3629 19.076L67.235 8.44273V19.4038H69.9442V0.843551C69.943 0.771597 69.9135 0.702841 69.8619 0.652472C69.81 0.602104 69.7404 0.574522 69.6685 0.575721Z" fill="#AEAEAE"/>
<path d="M86.5074 9.92994H80.1938V3.29414H86.5074C88.3367 3.29414 89.82 4.778 89.82 6.60804C89.82 8.43808 88.3367 9.92194 86.5074 9.92194V9.92994ZM86.5074 0.567871H77.4766V19.3959H80.1858V12.6562H86.4994C89.834 12.6562 92.5373 9.95192 92.5373 6.61604C92.5373 3.28015 89.834 0.575866 86.4994 0.575866" fill="#AEAEAE"/>
<path d="M10.3965 17.2851C6.98231 17.3042 4.01372 14.9461 3.25888 11.6154C2.50405 8.28436 4.16556 4.87612 7.25444 3.42064C10.3429 1.96476 14.028 2.8534 16.1147 5.55649L18.0607 3.63371C15.375 0.387762 10.9427 -0.82467 6.97992 0.603225C3.01673 2.03112 0.375 5.79194 0.375 10.0057C0.375 14.2194 3.01673 17.9802 6.97992 19.4081C10.9427 20.836 15.375 19.6236 18.0607 16.3776L16.1147 14.4548C14.754 16.2385 12.6394 17.2851 10.3965 17.2851Z" fill="#AEAEAE"/>
<path d="M124.657 8.27093L122.583 7.79923C120.353 7.31953 120.185 5.8005 120.185 5.3248C120.185 3.78577 121.412 2.90233 123.55 2.90233C125.748 2.90233 127.354 4.39339 127.845 4.90107L129.751 3.02625C127.961 1.14744 125.935 0.228027 123.55 0.228027C119.917 0.228027 117.476 2.27073 117.476 5.31281C117.476 6.28019 117.476 9.22233 122.359 10.4256L124.629 10.9612C126.735 11.5409 127.758 12.5602 127.758 14.0713C127.758 15.8421 126.051 17.0774 123.614 17.0774C121.004 17.0774 119.398 15.2825 118.918 14.6789L117.036 16.5337C118.319 17.9968 120.509 19.7317 123.642 19.7317C127.546 19.7317 130.491 17.2932 130.491 14.0633C130.491 11.1691 128.493 9.16237 124.677 8.26294" fill="#AEAEAE"/>
<path d="M142.89 8.27093L140.816 7.79922C138.587 7.31953 138.419 5.80049 138.419 5.32479C138.419 3.78577 139.645 2.90233 141.783 2.90233C143.981 2.90233 145.587 4.39339 146.075 4.90106L147.985 3.02625C146.195 1.14744 144.165 0.228027 141.783 0.228027C138.151 0.228027 135.709 2.27073 135.709 5.3128C135.709 6.28019 135.709 9.22232 140.593 10.4256L142.874 10.9492C144.976 11.5289 145.999 12.5482 145.999 14.0593C145.999 15.8301 144.297 17.0653 141.859 17.0653C139.25 17.0653 137.639 15.2705 137.164 14.6669L135.254 16.5417C136.537 18.0048 138.726 19.7397 141.859 19.7397C145.763 19.7397 148.708 17.3012 148.708 14.0712C148.708 11.1771 146.71 9.17035 142.894 8.27093" fill="#AEAEAE"/>
<path d="M100.441 11.8527L103.542 5.93645L106.647 11.8527H100.441ZM103.542 0.407959C103.435 0.408758 103.339 0.471119 103.294 0.567858L93.4204 19.4039H96.4853L99.0108 14.579H108.07L110.599 19.4039H113.66L103.79 0.567858C103.744 0.471918 103.648 0.409958 103.542 0.407959Z" fill="#AEAEAE"/>
<path d="M28.4944 12.3603L30.4084 14.2871L37.0337 7.62331L35.1157 5.69653L28.4944 12.3603Z" fill="#AEAEAE"/>
</g>
<defs>
<clipPath id="clip0_1159_391">
<rect width="148.333" height="20" fill="white" transform="translate(0.375)"/>
</clipPath>
</defs>
</svg>
