<svg width="140" height="26" viewBox="0 0 140 26" fill="none" xmlns="http://www.w3.org/2000/svg">
<g clip-path="url(#clip0_1159_405)">
<path fill-rule="evenodd" clip-rule="evenodd" d="M16.7474 4.88232L10.5074 11.745L0.708252 6.79375V9.76452L2.02559 10.4554V20.7495L12.4025 26.0001L22.8026 20.7725V10.8469L24.1199 11.4917V8.59002L16.7474 4.88232ZM20.8843 18.8611L12.4256 23.0524L4.61404 19.1835V11.6529L11.1083 14.9231L17.3714 8.08339L20.8612 9.85663L20.8843 18.8611Z" fill="#AEAEAE"/>
<path fill-rule="evenodd" clip-rule="evenodd" d="M5.21497 4.97431V1.91142L6.9483 0L9.69854 1.38175V4.05315L7.73408 6.24092L5.21497 4.97431Z" fill="#AEAEAE"/>
<path fill-rule="evenodd" clip-rule="evenodd" d="M15.869 21.5322V16.65L18.4575 15.3604V20.2425L15.869 21.5322Z" fill="#AEAEAE"/>
<path fill-rule="evenodd" clip-rule="evenodd" d="M97.4053 19.9202C97.4053 20.6801 96.7813 21.2789 96.0417 21.2789C95.279 21.2789 94.6781 20.6571 94.6781 19.9202C94.6781 19.1603 95.3021 18.5615 96.0417 18.5615C96.8044 18.5615 97.4053 19.1603 97.4053 19.9202Z" fill="#AEAEAE"/>
<path d="M28.1179 5.73413H30.7988V11.7908H37.7553V5.73413H40.4362V20.9795H37.7553V14.1168H30.7988V20.9795H28.1179V5.73413Z" fill="#AEAEAE"/>
<path d="M41.7535 15.4525C41.7535 12.0903 43.7873 9.64917 47.3464 9.64917C50.9056 9.64917 52.9394 12.0903 52.9394 15.4525C52.9394 18.8378 50.9056 21.2789 47.3464 21.2789C43.7873 21.2789 41.7535 18.8378 41.7535 15.4525ZM50.4896 15.4525C50.4896 13.5641 49.5189 11.5606 47.3464 11.5606C45.1509 11.5606 44.2033 13.5411 44.2033 15.4525C44.2033 17.364 45.174 19.3675 47.3464 19.3675C49.5189 19.3445 50.4896 17.364 50.4896 15.4525Z" fill="#AEAEAE"/>
<path d="M54.3261 9.94855H56.6372V11.4915H56.7066C57.4461 10.4091 58.3475 9.64917 60.1039 9.64917C61.4444 9.64917 62.7155 10.2249 63.2008 11.4915C64.0097 10.3631 65.0728 9.64917 66.6675 9.64917C69.0017 9.64917 70.3653 10.6625 70.3653 13.3569V20.9796H67.9155V14.5314C67.9155 12.7811 67.7999 11.5606 65.9048 11.5606C64.2639 11.5606 63.5475 12.643 63.5475 14.5083V20.9796H61.0977V13.8865C61.0977 12.3666 60.6355 11.5606 59.1564 11.5606C57.8852 11.5606 56.7297 12.5739 56.7297 14.4162V20.9565H54.2799V9.94855H54.3261Z" fill="#AEAEAE"/>
<path d="M74.2248 16.0974C74.2248 17.8245 75.1723 19.3675 77.2061 19.3675C78.6159 19.3675 79.471 18.7457 79.9101 17.5252H82.2212C81.6897 19.9432 79.6328 21.2789 77.2061 21.2789C73.7394 21.2789 71.7981 18.8609 71.7981 15.4756C71.7981 12.3436 73.855 9.64917 77.1599 9.64917C80.6497 9.64917 82.799 12.7811 82.383 16.0974H74.2248ZM79.9101 14.4853C79.8177 12.9423 78.7777 11.5606 77.1368 11.5606C75.4497 11.5606 74.2941 12.8502 74.2248 14.4853H79.9101Z" fill="#AEAEAE"/>
<path d="M85.4107 17.4331C85.5494 18.8379 86.6125 19.3446 87.9067 19.3446C88.8312 19.3446 90.4259 19.1603 90.3797 17.8937C90.3103 16.6041 88.5307 16.4659 86.7512 16.0514C84.9485 15.6599 83.192 15.0381 83.192 12.7812C83.192 10.3632 85.8036 9.62622 87.8143 9.62622C90.0792 9.62622 92.1361 10.5704 92.4366 13.0115H89.8943C89.6863 11.8601 88.7156 11.5377 87.6525 11.5377C86.9361 11.5377 85.6418 11.6989 85.6418 12.6661C85.6418 13.8636 87.4445 14.0248 89.2472 14.4393C91.0268 14.8539 92.8295 15.4757 92.8295 17.6634C92.8295 20.2888 90.1717 21.256 87.8836 21.256C85.1103 21.256 83.0302 20.0124 82.984 17.4101H85.4107V17.4331Z" fill="#AEAEAE"/>
<path d="M107.158 13.426C106.789 11.7909 105.795 10.7776 104.038 10.7776C101.45 10.7776 100.156 13.1266 100.156 15.4756C100.156 17.8246 101.45 20.1736 104.038 20.1736C105.702 20.1736 107.089 18.8609 107.251 17.0416H108.591C108.222 19.69 106.488 21.302 104.038 21.302C100.664 21.302 98.8152 18.6306 98.8152 15.4756C98.8152 12.3206 100.664 9.64917 104.038 9.64917C106.396 9.64917 108.222 10.9158 108.522 13.426H107.158Z" fill="#AEAEAE"/>
<path d="M119.731 15.4756C119.731 18.6306 117.882 21.302 114.508 21.302C111.133 21.302 109.285 18.6306 109.285 15.4756C109.285 12.3206 111.133 9.64917 114.508 9.64917C117.882 9.64917 119.731 12.3206 119.731 15.4756ZM110.625 15.4756C110.625 17.8246 111.919 20.1736 114.508 20.1736C117.096 20.1736 118.39 17.8246 118.39 15.4756C118.39 13.1266 117.096 10.7776 114.508 10.7776C111.896 10.7776 110.625 13.1266 110.625 15.4756Z" fill="#AEAEAE"/>
<path d="M121.094 9.97158H122.342V11.8369H122.411C123.128 10.5243 124.283 9.64917 126.04 9.64917C127.496 9.64917 128.813 10.3631 129.206 11.8139C129.876 10.3631 131.263 9.64917 132.719 9.64917C135.146 9.64917 136.371 10.9158 136.371 13.5181V20.9796H135.03V13.5641C135.03 11.7448 134.337 10.7776 132.419 10.7776C130.084 10.7776 129.414 12.689 129.414 14.7386V20.9796H128.074V13.5181C128.097 12.0212 127.473 10.7776 125.763 10.7776C123.428 10.7776 122.481 12.5278 122.458 14.8307V20.9796H121.117V9.97158H121.094Z" fill="#AEAEAE"/>
<path d="M139.375 9.67236C139.375 10.4093 138.774 11.0081 138.011 11.0081C137.249 11.0081 136.648 10.4093 136.648 9.67236C136.648 8.93543 137.249 8.33667 138.034 8.33667C138.774 8.33667 139.375 8.93543 139.375 9.67236ZM136.994 9.67236C136.994 10.2711 137.434 10.7317 138.034 10.7317C138.612 10.7317 139.051 10.2711 139.051 9.67236C139.051 9.0736 138.612 8.61302 138.011 8.61302C137.434 8.61302 136.994 9.09663 136.994 9.67236ZM137.803 10.3632H137.503V9.02755C137.618 9.00452 137.803 8.98149 138.011 8.98149C138.266 8.98149 138.381 9.02754 138.474 9.09663C138.566 9.14269 138.612 9.25784 138.612 9.37299C138.612 9.53419 138.497 9.64933 138.335 9.69539V9.71842C138.474 9.76448 138.52 9.8566 138.566 10.0408C138.612 10.2481 138.635 10.3172 138.659 10.3632H138.335C138.289 10.3172 138.266 10.202 138.219 10.0408C138.196 9.90266 138.104 9.83357 137.942 9.83357H137.803V10.3632ZM137.827 9.6263H137.965C138.127 9.6263 138.266 9.58025 138.266 9.44207C138.266 9.32692 138.173 9.23481 137.988 9.23481C137.919 9.23481 137.85 9.23481 137.827 9.25784V9.6263Z" fill="#AEAEAE"/>
</g>
<defs>
<clipPath id="clip0_1159_405">
<rect width="138.667" height="26" fill="white" transform="translate(0.708252)"/>
</clipPath>
</defs>
</svg>
