<svg width="48" height="48" viewBox="0 0 48 48" fill="none" xmlns="http://www.w3.org/2000/svg">
<path d="M19.9999 21.3333H10.6666C10.313 21.3333 9.97382 21.1929 9.72378 20.9428C9.47373 20.6928 9.33325 20.3536 9.33325 20V10.6667C9.33325 10.3131 9.47373 9.97392 9.72378 9.72387C9.97382 9.47382 10.313 9.33334 10.6666 9.33334H19.9999C20.3535 9.33334 20.6927 9.47382 20.9427 9.72387C21.1928 9.97392 21.3333 10.3131 21.3333 10.6667V20C21.3333 20.3536 21.1928 20.6928 20.9427 20.9428C20.6927 21.1929 20.3535 21.3333 19.9999 21.3333Z" fill="#99182A"/>
<path d="M19.9999 38.6667H10.6666C10.313 38.6667 9.97382 38.5262 9.72378 38.2762C9.47373 38.0261 9.33325 37.687 9.33325 37.3334V28C9.33325 27.6464 9.47373 27.3073 9.72378 27.0572C9.97382 26.8072 10.313 26.6667 10.6666 26.6667H19.9999C20.3535 26.6667 20.6927 26.8072 20.9427 27.0572C21.1928 27.3073 21.3333 27.6464 21.3333 28V37.3334C21.3333 37.687 21.1928 38.0261 20.9427 38.2762C20.6927 38.5262 20.3535 38.6667 19.9999 38.6667Z" fill="#99182A"/>
<path d="M25.3333 10.6667H38.6666V13.3334H25.3333V10.6667Z" fill="#EB808F" fill-opacity="0.6"/>
<path d="M38.6666 28H25.3333V30.6667H38.6666V28Z" fill="#EB808F" fill-opacity="0.6"/>
<path d="M38.6666 34.6667H25.3333V37.3334H38.6666V34.6667Z" fill="#99182A" fill-opacity="0.6"/>
<path d="M38.6666 17.3333H25.3333V20H38.6666V17.3333Z" fill="#99182A" fill-opacity="0.6"/>
</svg>
