<svg width="111" height="26" viewBox="0 0 111 26" fill="none" xmlns="http://www.w3.org/2000/svg">
<g clip-path="url(#clip0_1159_420)">
<path fill-rule="evenodd" clip-rule="evenodd" d="M4.38304 5.72703L13.0261 8.1467C13.1993 8.19352 13.4215 8.11664 13.5252 7.97155L16.6846 3.57557C16.709 3.53993 16.7263 3.49974 16.7353 3.45732C16.7444 3.4149 16.7451 3.37108 16.7374 3.32838C16.7297 3.28567 16.7138 3.24493 16.6906 3.20849C16.6674 3.17205 16.6372 3.14062 16.602 3.11603L12.1278 0.0714961C12.048 0.0229986 11.9564 -0.0017443 11.8634 9.56305e-05C11.7704 0.00193556 11.6798 0.0302841 11.602 0.0819008L4.33176 5.43685C4.18821 5.54552 4.21213 5.67616 4.38304 5.72703ZM18.4802 1.72237L18.8835 10.812C18.8892 10.9924 19.0328 11.182 19.1997 11.2386L24.2994 12.9277C24.3818 12.9521 24.4703 12.9427 24.5459 12.9017C24.6215 12.8606 24.6783 12.7911 24.7039 12.708L26.1748 7.44785C26.1954 7.35575 26.19 7.25963 26.1593 7.17049C26.1286 7.08135 26.0737 7.00279 26.0011 6.9438L18.736 1.58307C18.5902 1.47786 18.4751 1.54029 18.4802 1.72237ZM26.5895 14.0849L18.1937 17.2838C18.1081 17.3207 18.0345 17.3813 17.9813 17.4587C17.9281 17.5361 17.8975 17.6271 17.8929 17.7213L17.886 23.163C17.8867 23.2063 17.8958 23.249 17.9128 23.2887C17.9299 23.3284 17.9545 23.3643 17.9853 23.3943C18.016 23.4243 18.0524 23.4478 18.0921 23.4634C18.1319 23.4791 18.1744 23.4866 18.217 23.4855L23.6005 23.2786C23.6931 23.2706 23.7816 23.2361 23.8558 23.1793C23.93 23.1224 23.9868 23.0454 24.0197 22.9572L26.7997 14.2901C26.8522 14.1155 26.757 14.023 26.5895 14.0849ZM17.5061 25.7347L11.9147 18.6208C11.8053 18.4803 11.578 18.4092 11.4105 18.4647L6.3074 20.1381C6.26702 20.1524 6.22982 20.1746 6.19793 20.2035C6.16604 20.2324 6.14009 20.2674 6.12156 20.3065C6.10304 20.3456 6.0923 20.388 6.08998 20.4313C6.08765 20.4747 6.09378 20.518 6.10801 20.5589L7.96287 25.6907C8.02554 25.8572 8.21923 25.9942 8.39583 25.9942L17.379 26C17.5573 25.9971 17.6154 25.8786 17.5055 25.7347H17.5061ZM3.49947 20.5294L0.727431 11.8577C0.672173 11.6854 0.740534 11.4565 0.878395 11.3467L5.11507 7.96866C5.18371 7.91588 5.27013 7.89277 5.35549 7.90435C5.44086 7.91594 5.51825 7.96128 5.57081 8.03051L8.71655 12.4398C8.81966 12.5837 8.82479 12.8236 8.72567 12.9727L3.78659 20.5676C3.68518 20.7185 3.55644 20.7005 3.49947 20.53V20.5294Z" fill="#AEAEAE"/>
<path fill-rule="evenodd" clip-rule="evenodd" d="M107.956 11.3311H108.395L109.044 13.2693L109.689 11.3311H110.125V13.623H109.832V12.2704C109.832 12.2242 109.834 12.1467 109.836 12.0386C109.837 11.93 109.838 11.8138 109.838 11.6901L109.194 13.623H108.89L108.239 11.6901V11.76C108.239 11.8161 108.24 11.9022 108.244 12.0167C108.247 12.1323 108.248 12.2167 108.248 12.271V13.623H107.956L107.956 11.3311ZM107.682 11.3311V11.6045H106.921V13.623H106.612V11.6045H105.851V11.3317L107.682 11.3311ZM71.2104 19.8745C69.9092 19.8745 68.6628 19.3358 68.6628 17.6895V13.7849C69.2438 13.1606 70.2351 12.6404 71.2776 12.6404C73.4834 12.6404 74.1841 14.5837 74.1841 16.3889C74.1841 18.6248 73.0037 19.8745 71.2104 19.8745ZM71.9264 11.3224C71.2976 11.3246 70.6774 11.471 70.1122 11.7505C69.547 12.0301 69.0513 12.4357 68.6622 12.9369L68.7471 11.3224H68.1495L65.6708 12.1901V12.6063L66.952 13.2155V23.1867C66.952 23.9844 66.3721 24.0705 65.5848 24.1763V24.8532H70.0294V24.1769C69.2444 24.0705 68.6622 23.985 68.6622 23.1861V20.1682C69.2079 20.5861 69.9958 20.8635 71.0212 20.8635C73.7204 20.8635 75.9421 18.8676 75.9421 15.6595C75.9421 13.2664 74.5589 11.3224 71.9264 11.3224ZM90.2239 7.90738C89.019 7.95825 88.3775 8.149 88.3775 9.31201V20.689H87.5509L78.8417 10.0947V18.5387C78.8417 19.7005 79.4832 19.8913 80.6875 19.9445V20.689H75.8669V19.9445C77.0689 19.8913 77.7104 19.7005 77.7104 18.5387V9.0519C76.9903 8.149 76.7487 7.9253 75.8669 7.90738V7.16171H78.9511L87.2467 17.2462V9.31144C87.2467 8.14958 86.6064 7.95825 85.4021 7.9068V7.16113H90.2239V7.90738ZM104.648 19.7705C104.22 20.2554 103.451 20.8635 102.271 20.8635C100.971 20.8635 99.791 20.1861 99.791 18.3999V12.4513H98.4756V11.8432C99.3825 11.2883 100.117 10.6294 100.989 9.51953H101.502V11.4964H104.169V12.4513H101.502V17.7936C101.502 19.0421 102.032 19.5953 103.075 19.5953C103.536 19.5953 103.98 19.5086 104.443 19.2861L104.648 19.7705ZM93.929 12.3976C95.4672 12.3976 96.2715 13.4051 96.2715 14.6184H91.5016C91.6896 13.3196 92.5778 12.3976 93.9285 12.3976H93.929ZM94.7317 19.3537C92.4758 19.3537 91.4498 17.878 91.4498 15.4855H98.1515V14.9999C98.1515 12.919 96.8515 11.3224 94.3552 11.3224C91.7409 11.3224 89.8251 13.3531 89.8251 16.3889C89.8251 18.8676 91.4498 20.8635 94.2013 20.8635C96.6122 20.8635 97.7932 19.4745 98.1669 18.208L97.6712 17.9826C97.1067 18.6947 96.1513 19.3537 94.7317 19.3537ZM44.0083 16.8728H44.6395L44.0083 20.689H33.3132V19.9445C34.595 19.8913 35.2786 19.7005 35.2786 18.5387V9.31144C35.2786 8.14958 34.595 7.95825 33.3132 7.9068V7.16113H39.1758V7.9068C37.8934 7.95825 37.2104 8.14958 37.2104 9.31144V18.434C37.2104 19.4745 37.7755 19.7364 39.1758 19.7364H40.7948C42.5027 19.7364 42.9157 18.8861 44.0089 16.8728H44.0083ZM60.9807 19.7878C58.9287 19.7878 57.7335 17.915 57.7335 15.6774C57.7335 13.7849 58.5869 12.3976 60.2959 12.3976C62.3485 12.3976 63.5459 14.271 63.5459 16.5074C63.5459 18.3999 62.6903 19.7878 60.9807 19.7878ZM60.8092 11.3224C58.1773 11.3224 55.9214 13.23 55.9214 16.2658C55.9214 18.9375 57.7677 20.8635 60.4674 20.8635C63.0993 20.8635 65.3569 18.956 65.3569 15.9196C65.3569 13.2485 63.5112 11.3224 60.8092 11.3224ZM50.3841 19.7867C48.3322 19.7867 47.1358 17.915 47.1358 15.6774C47.1358 13.7849 47.9904 12.3976 49.6994 12.3976C51.7502 12.3976 52.9471 14.271 52.9471 16.5074C52.9471 18.3999 52.0926 19.7878 50.3836 19.7867H50.3841ZM50.2132 11.3224C47.5802 11.3224 45.3231 13.23 45.3231 16.2658C45.3231 18.9375 47.17 20.8635 49.8692 20.8635C52.5028 20.8635 54.7598 18.956 54.7598 15.9196C54.7598 13.2485 52.9158 11.3224 50.2132 11.3224Z" fill="#AEAEAE"/>
</g>
<defs>
<clipPath id="clip0_1159_420">
<rect width="109.417" height="26" fill="white" transform="translate(0.708252)"/>
</clipPath>
</defs>
</svg>
