<svg width="190" height="40" viewBox="0 0 190 40" fill="none" xmlns="http://www.w3.org/2000/svg">
<g clip-path="url(#clip0_1159_460)">
<path d="M13.5185 17.7709C12.301 17.7709 11.6905 16.7979 11.3256 15.9443C10.9607 15.0907 11.0835 14.363 10.2309 14.363C9.37835 14.363 7.30824 16.9172 6.94332 20.3268C6.94332 20.6931 6.82062 23.0037 6.82062 24.222V27.8735C6.82062 29.2111 6.70115 30.915 6.94332 31.888C7.18549 33.229 7.55208 33.3499 8.52575 33.8373C8.89066 33.9583 9.01341 34.0792 9.25558 34.0792V34.2019H0V34.0792C0.242172 34.0792 0.366528 33.9583 0.729786 33.8373C1.82619 33.3499 2.07004 33.229 2.31221 31.888C2.55604 30.915 2.43497 29.2111 2.43497 27.8735V19.2312V15.215C2.31222 14.2404 2.06838 13.9984 1.58238 13.6321C1.09306 13.2674 0.60707 13.2674 0.240495 13.1464V13.0237H6.45236C6.69619 13.0237 6.69619 13.1464 6.69619 13.2674V18.8665C7.30328 16.4316 8.52241 14.8487 9.25224 14.1193C9.98373 13.39 11.2029 12.5381 12.7853 12.5381C13.5151 12.5381 14.3677 12.7801 14.9765 13.3901C15.3431 13.7564 15.7079 14.484 15.7079 15.4587C15.8307 16.6736 15.1025 17.7709 13.5185 17.7709ZM33.1277 21.9081H20.0953C20.0953 27.7492 20.8251 30.6714 22.2881 32.3753C23.3828 33.713 24.4792 33.9566 25.9405 33.9566C29.9596 33.9566 32.0297 30.6714 32.8839 27.2635H33.1277C32.2735 31.5217 29.4736 34.4439 25.2107 34.4439C22.7741 34.4439 20.0952 33.8356 18.2673 31.8863C16.3183 29.6968 15.5885 27.1409 15.5885 23.612C15.5885 16.9173 19.3638 12.5364 24.7231 12.5364C30.8122 12.5364 33.4927 16.6736 33.4927 20.5688C33.2472 20.9351 33.2472 21.4208 33.1277 21.9081ZM27.2808 13.7547C26.4282 12.9011 25.6984 12.6591 24.4809 12.6591C23.3845 12.6591 22.653 12.9011 21.9231 13.7547C20.8267 14.9713 20.2197 17.6499 20.0953 21.5434H27.2808C28.7421 21.5434 28.8648 21.5434 28.8648 19.3522C28.7404 16.4316 28.0123 14.4824 27.2808 13.7547ZM47.9848 34.4439C46.7673 34.4439 45.7937 34.4439 45.306 34.0776C44.6973 33.7113 44.2112 32.7384 44.3307 30.9134C43.8447 32.6174 42.1412 34.4439 38.973 34.4439C36.0504 34.4439 33.4927 32.74 33.4927 29.2095C33.4927 27.8718 33.8576 26.7762 34.7102 26.0469C36.2926 24.5866 38.3626 24.464 40.4327 23.612C43.2343 22.5164 44.5745 21.1771 44.5745 19.7168V15.9443C44.5745 13.2674 43.8447 12.7801 41.7746 12.7801C40.6782 12.7801 40.0694 13.0221 39.5818 13.5094C39.0958 13.9967 38.8519 15.0907 38.8519 16.5526C38.8519 18.1339 37.9994 18.7422 36.6608 18.7422C35.5644 18.7422 34.7118 18.1339 34.7118 16.9156C34.7118 16.0636 34.954 15.4553 35.5644 14.847C36.6608 13.5077 39.7062 12.6574 41.7762 12.6574C45.4304 12.6574 48.9618 13.9967 48.9618 17.5256C48.9618 19.1085 48.839 27.0199 48.839 29.9404C48.839 32.13 48.839 32.861 49.3284 33.3483C49.469 33.4986 49.6383 33.6191 49.8263 33.7028C50.0144 33.7865 50.2173 33.8317 50.4231 33.8356C50.9108 33.8356 51.2757 33.713 51.7633 33.4693V33.592C51.1513 33.9566 49.5689 34.4439 47.9848 34.4439ZM41.1659 23.612C39.824 24.3413 39.2152 24.8286 38.7292 25.5596C38.2416 26.4116 37.8766 27.7492 37.8766 29.0901C37.8766 31.888 38.9714 33.471 40.922 33.471C41.2869 33.471 41.7746 33.4709 42.1379 33.2289C43.2343 32.7416 44.2096 31.0377 44.2096 29.4565V21.1804C43.6008 22.2727 42.5044 22.8811 41.1659 23.612ZM51.1513 33.9566C51.3951 33.8356 51.7601 33.713 52.0055 33.592C52.8581 33.2257 53.223 32.9837 53.4668 31.6427C53.709 30.6698 53.709 29.0885 53.709 27.6265V6.08368C53.709 5.23172 53.709 2.92113 53.5879 2.06916C53.4668 1.09454 53.223 0.728223 52.7337 0.486224C52.2477 0.119911 51.76 0.119901 51.3951 -0.00109863H57.6053C57.8475 -0.00109863 57.8475 -0.00108488 57.8475 0.365228V27.8718C57.8475 29.2094 57.8475 30.7924 57.9702 31.8863C58.2124 33.2273 58.579 33.4693 59.6737 33.8356C59.9176 33.9566 60.0403 33.9566 60.2825 34.0776V34.2003H51.148V33.9566H51.1513Z" fill="#AEAEAE"/>
<path d="M73.6833 31.2776C72.9534 32.8605 70.7589 34.4434 68.5678 34.4434C66.6188 34.4434 65.4013 34.1998 64.3065 33.1025C63.454 32.2505 62.9647 31.2759 62.9647 29.4526C62.9647 28.4797 63.0874 15.5791 63.2085 13.1442C62.4787 13.1442 61.0173 13.1442 60.2842 13.0216V12.9006C63.3296 12.1713 65.2785 10.5867 67.3503 3.89359H67.4697V12.7779H72.343V13.0199H67.4697L67.2276 30.7903C67.2276 32.6169 67.7152 33.7108 69.7853 33.7108C71.4904 33.7108 72.8307 32.3732 73.4394 31.1565L73.6833 31.2776ZM82.0879 34.4434C77.2163 34.4434 71.9781 30.1836 71.9781 23.4889C71.9781 16.7974 77.2163 12.5376 82.0879 12.5376C86.9612 12.5376 92.3188 16.6748 92.3188 23.4889C92.3188 30.1836 87.0806 34.4434 82.0879 34.4434ZM85.3771 14.1172C84.4018 12.9006 83.1843 12.6569 82.0879 12.6569C80.9915 12.6569 79.7724 13.0216 78.9214 13.9962C77.4601 15.5791 76.6076 19.5937 76.6076 23.3679C76.6076 27.2631 77.4601 31.0339 78.9214 32.7378C79.8968 33.9545 81.1142 34.1998 82.209 34.1998C83.3054 34.1998 84.4018 33.9561 85.4966 32.7378C86.8385 31.1566 87.8121 27.2614 87.8121 23.3679C87.691 19.5937 86.8385 15.8228 85.3771 14.1172ZM104.983 17.7704C103.767 17.7704 103.157 16.7974 102.794 15.9438C102.427 15.0902 102.55 14.3625 101.696 14.3625C100.843 14.3625 98.7729 16.9167 98.408 20.3263C98.408 20.6926 98.2885 23.0032 98.2885 24.2215V27.873C98.2885 29.2106 98.1658 30.9146 98.408 31.8875C98.6518 33.2285 99.0167 33.3494 99.9921 33.8368C100.359 33.9578 100.478 34.0788 100.722 34.0788V34.2014H91.5873V34.0788C91.8295 34.0788 91.9539 33.9578 92.3172 33.8368C93.4136 33.3494 93.6574 33.2285 93.8996 31.8875C94.1434 30.9146 94.0224 29.2106 94.0224 27.873V19.2307V15.2145C93.8996 14.2399 93.6558 13.9979 93.1698 13.6315C92.6804 13.2669 92.1945 13.2669 91.8279 13.1459V13.0232H98.0397C98.2836 13.0232 98.2836 13.1459 98.2836 13.2669V18.866C98.8907 16.4311 100.11 14.8482 100.84 14.1188C101.571 13.3895 102.79 12.5376 104.373 12.5376C105.103 12.5376 105.955 12.7796 106.564 13.3896C106.93 13.7559 107.295 14.4835 107.295 15.4581C107.3 16.6731 106.567 17.7704 104.983 17.7704ZM107.3 34.8081C105.837 34.8081 104.62 33.7125 104.62 32.1312C104.62 30.5499 105.837 29.4543 107.3 29.4543C108.762 29.4543 109.977 30.4272 109.977 32.1312C109.856 33.7125 108.762 34.8081 107.3 34.8081ZM121.305 34.4434C118.626 34.4434 116.189 33.3478 114.607 31.7665C112.535 29.6963 111.805 26.7741 111.805 23.2452C111.805 16.5521 116.921 12.5359 121.428 12.5359C124.473 12.5359 126.785 13.6299 127.639 14.7255C128.369 15.5791 128.734 16.3068 128.734 17.0394C128.734 18.6207 127.639 19.229 126.664 19.229C124.961 19.229 124.35 18.1334 124.227 16.5521C123.863 13.7542 123.375 12.7796 121.305 12.7796C120.452 12.7796 119.114 13.1459 118.381 13.9962C117.286 15.3355 116.677 18.4997 116.677 22.3932C116.677 27.263 117.286 30.4256 118.505 32.2505C119.479 33.5914 120.696 33.9545 121.792 33.9545C126.299 33.9545 128.248 30.0593 128.978 27.1387H129.22C128.003 31.2776 125.445 34.4434 121.305 34.4434ZM139.088 34.4434C134.215 34.4434 128.978 30.1836 128.978 23.4889C128.978 16.7974 134.215 12.5376 139.088 12.5376C143.96 12.5376 149.317 16.6748 149.317 23.4889C149.317 30.1836 143.958 34.4434 139.088 34.4434ZM142.375 14.1172C141.4 12.9006 140.183 12.6569 139.088 12.6569C137.991 12.6569 136.772 13.0216 135.921 13.9962C134.458 15.5791 133.606 19.5937 133.606 23.3679C133.606 27.2631 134.458 31.0339 135.921 32.7378C136.895 33.9545 138.113 34.1998 139.209 34.1998C140.304 34.1998 141.4 33.9561 142.497 32.7378C143.837 31.1566 144.81 27.2614 144.81 23.3679C144.568 19.5937 143.716 15.8228 142.375 14.1172ZM173.675 33.9561C173.919 33.8351 174.042 33.7125 174.405 33.5915C175.38 33.2252 175.745 32.9832 175.989 31.6422C176.231 30.6693 176.231 29.088 176.231 27.626V18.9837C176.231 16.6715 175.989 15.5775 175.502 14.8465C174.893 13.9945 174.04 13.5072 172.823 13.5072C170.63 13.5072 168.072 15.4548 167.707 19.2273C167.707 19.9566 167.586 20.8086 167.586 21.7832V27.5034C167.586 28.8427 167.463 30.424 167.707 31.5196C167.949 32.8589 168.316 33.1008 169.29 33.4671C169.656 33.5898 169.777 33.7091 170.021 33.7091V33.8318H160.764V33.7091C161.008 33.7091 161.13 33.5898 161.494 33.4671C162.469 33.1008 162.834 32.8589 163.078 31.5196C163.32 30.5466 163.32 28.9637 163.32 27.5034V18.8627C163.32 16.5488 163.078 15.4532 162.467 14.7239C161.859 13.8719 161.006 13.3846 159.789 13.3846C157.352 13.3846 155.038 15.4532 154.673 19.2257C154.55 20.4423 154.55 21.9026 154.55 23.3645V27.379C154.55 28.72 154.429 30.4223 154.673 31.3969C154.915 32.7362 155.282 32.8572 156.377 33.3445L157.106 33.5881V33.7075H147.851V33.5881C148.093 33.5881 148.217 33.4655 148.581 33.3445C149.677 32.9798 149.921 32.7362 150.165 31.3969C150.407 30.4223 150.407 28.72 150.407 27.379V18.861C150.407 18.0074 150.407 15.5758 150.286 14.8432C150.165 13.8702 149.919 13.6266 149.433 13.2619C148.946 12.8956 148.458 12.8956 148.091 12.7746V12.6536H154.303C154.545 12.6536 154.545 12.6536 154.545 12.8956L154.424 17.7654C155.033 15.5758 156.129 14.3575 157.226 13.5056C158.078 12.8973 159.661 12.1663 161.366 12.1663C163.557 12.1663 165.141 12.7746 165.994 13.8686C166.481 14.4769 167.334 15.8178 167.334 17.8864C167.943 15.5742 169.162 14.2349 170.258 13.5039C171.353 12.652 173.058 12.1646 174.277 12.1646C176.956 12.1646 178.296 13.0166 179.026 13.9912C179.635 14.7205 180.244 16.0598 180.244 18.6157V27.3774C180.244 28.7183 180.244 30.2996 180.488 31.3952C180.73 32.7345 181.096 32.9782 182.07 33.3428L182.8 33.5865V33.7059H173.665V33.9561H173.675ZM186.343 16.9168C185.855 16.9168 185.368 16.7974 184.882 16.6748C184.394 16.4328 184.027 16.1891 183.785 15.9454C183.419 15.5808 183.176 15.2161 183.055 14.8498C182.811 14.3642 182.811 13.9979 182.811 13.3896C182.811 12.9022 182.934 12.4149 183.055 11.9293C183.297 11.4419 183.541 11.0773 183.785 10.7126C184.15 10.3463 184.515 10.1043 185.003 9.98168C185.489 9.73968 185.976 9.73967 186.464 9.73967C186.952 9.73967 187.439 9.86234 187.925 9.98168C188.413 10.2253 188.779 10.4706 189.022 10.7126C189.388 11.079 189.63 11.442 189.751 11.8066C189.994 12.2956 189.994 12.6602 189.994 13.2685C189.994 13.7558 189.873 14.2415 189.751 14.7288C189.509 15.2161 189.264 15.5824 189.022 15.9454C188.779 16.3084 188.292 16.5538 187.804 16.6748C187.317 16.9168 186.831 16.9168 186.343 16.9168ZM186.343 16.5521C186.831 16.5521 187.195 16.4311 187.683 16.3085C188.048 16.1891 188.413 15.9438 188.657 15.5808C188.901 15.3371 189.144 14.9725 189.388 14.6062C189.509 14.2399 189.63 13.7542 189.63 13.3896C189.63 12.9022 189.509 12.5376 189.388 12.1729C189.258 11.7768 189.001 11.4345 188.657 11.1983C188.415 10.9563 188.048 10.7126 187.683 10.4706C187.317 10.348 186.831 10.227 186.466 10.227C185.978 10.227 185.613 10.348 185.125 10.4706C184.729 10.5992 184.386 10.855 184.15 11.1983C183.908 11.442 183.664 11.8066 183.42 12.1729C183.299 12.5392 183.178 13.0249 183.178 13.3896C183.178 13.8752 183.299 14.2415 183.42 14.6062C183.541 14.9708 183.787 15.3355 184.15 15.5808C184.394 15.8228 184.759 16.0665 185.125 16.3085C185.489 16.4311 185.976 16.5521 186.343 16.5521ZM184.882 11.1966H186.585C187.073 11.1966 187.56 11.3193 187.803 11.563C188.045 11.8066 188.169 12.0503 188.169 12.4149C188.169 12.7812 188.046 13.0232 187.925 13.1459C187.804 13.3879 187.56 13.5105 187.317 13.6315L188.292 14.9725H187.317L186.464 13.7559H185.855V14.9725H185.003V11.1983H184.882V11.1966ZM186.587 13.0216C186.831 13.0216 186.953 13.0216 187.074 12.9006C187.195 12.7796 187.195 12.6586 187.195 12.5359C187.195 12.2939 187.195 12.1696 187.074 12.1696C186.953 12.0486 186.832 12.0486 186.587 12.0486H185.734V13.1442H186.587V13.0216Z" fill="#AEAEAE"/>
</g>
<defs>
<clipPath id="clip0_1159_460">
<rect width="190" height="34.808" fill="white"/>
</clipPath>
</defs>
</svg>
