<svg width="211" height="29" viewBox="0 0 211 29" fill="none" xmlns="http://www.w3.org/2000/svg">
<g clip-path="url(#clip0_1159_442)">
<path d="M46.0753 24.5877C41.8832 24.6133 38.0897 22.1062 36.468 18.239C34.8463 14.3717 35.716 9.90798 38.6717 6.93349C41.6269 3.95899 46.0838 3.06169 49.9593 4.66068C53.8347 6.25966 56.3636 10.0393 56.3636 14.233C56.3732 19.9312 51.7714 24.5627 46.0753 24.5877ZM46.0753 0.000196165C40.3212 -0.0299412 35.1169 3.41481 32.8944 8.7241C30.6713 14.034 31.8689 20.1604 35.9268 24.2414C39.9853 28.3225 46.1031 29.5524 51.4223 27.3564C56.7416 25.1603 60.2117 19.9721 60.2117 14.2159C60.2117 6.39329 53.8944 0.0411374 46.0753 0.000196165Z" fill="#9F2122"/>
<path d="M98.5681 0.819054C98.4374 0.820191 98.3169 0.888995 98.2498 1.00101L83.6813 20.8177L69.1129 1.00101C69.0447 0.887289 68.9213 0.817916 68.7889 0.819054C68.5774 0.819054 68.4052 0.988505 68.4023 1.20004V27.6015H72.2562V12.0097L83.454 27.1352C83.5102 27.2029 83.5932 27.2421 83.6813 27.2421C83.7694 27.2421 83.8524 27.2029 83.9087 27.1352L95.1065 12.0097V27.6015H98.9603V1.20004C98.9586 1.09768 98.9166 0.999878 98.8432 0.92823C98.7693 0.856583 98.6704 0.817348 98.5681 0.819054Z" fill="#9F2122"/>
<path d="M122.521 14.1249H113.54V4.68567H122.521C125.123 4.68567 127.233 6.79642 127.233 9.39961C127.233 12.0028 125.123 14.1135 122.521 14.1135V14.1249ZM122.521 0.807617H109.675V27.5901H113.529V18.003H122.509C127.253 18.003 131.098 14.1562 131.098 9.41098C131.098 4.66577 127.253 0.81899 122.509 0.81899" fill="#9F2122"/>
<path d="M14.2552 24.5828C9.39871 24.6101 5.17597 21.2558 4.10224 16.5179C3.02851 11.7796 5.39197 6.93142 9.7858 4.86104C14.1791 2.7901 19.421 4.05416 22.3892 7.89923L25.1574 5.16412C21.3371 0.546856 15.0323 -1.1778 9.3953 0.853346C3.75778 2.88449 0 8.23415 0 14.2281C0 20.222 3.75778 25.5716 9.3953 27.6028C15.0323 29.6339 21.3371 27.9093 25.1574 23.292L22.3892 20.5569C20.4538 23.0941 17.4457 24.5828 14.2552 24.5828Z" fill="#9F2122"/>
<path d="M176.787 11.7651L173.837 11.0941C170.666 10.4118 170.427 8.25097 170.427 7.5743C170.427 5.38508 172.172 4.12841 175.213 4.12841C178.339 4.12841 180.624 6.2494 181.323 6.97156L184.034 4.30469C181.488 1.63213 178.606 0.32428 175.213 0.32428C170.046 0.32428 166.573 3.22998 166.573 7.55725C166.573 8.93333 166.573 13.1184 173.519 14.83L176.747 15.592C179.743 16.4165 181.198 17.8665 181.198 20.0159C181.198 22.5349 178.771 24.292 175.304 24.292C171.592 24.292 169.307 21.7389 168.625 20.8802L165.948 23.5187C167.772 25.5999 170.887 28.0677 175.344 28.0677C180.897 28.0677 185.086 24.5991 185.086 20.0045C185.086 15.8877 182.244 13.0331 176.816 11.7537" fill="#9F2122"/>
<path d="M202.724 11.7651L199.774 11.0941C196.602 10.4118 196.363 8.25097 196.363 7.5743C196.363 5.38508 198.108 4.12841 201.149 4.12841C204.276 4.12841 206.561 6.24939 207.254 6.97155L209.971 4.30468C207.425 1.63213 204.537 0.32428 201.149 0.32428C195.983 0.32428 192.51 3.22997 192.51 7.55724C192.51 8.93332 192.51 13.1184 199.456 14.83L202.701 15.5749C205.691 16.3994 207.146 17.8494 207.146 19.9988C207.146 22.5179 204.725 24.2749 201.257 24.2749C197.546 24.2749 195.255 21.7218 194.579 20.8632L191.862 23.53C193.686 25.6112 196.801 28.0791 201.257 28.0791C206.811 28.0791 211 24.6104 211 20.0159C211 15.899 208.158 13.0445 202.73 11.7651" fill="#9F2122"/>
<path d="M142.341 16.8601L146.752 8.44443L151.169 16.8601H142.341ZM146.752 0.580292C146.6 0.581429 146.463 0.670135 146.4 0.807743L132.354 27.6015H136.714L140.306 20.7382H153.192L156.79 27.6015H161.144L147.105 0.807743C147.04 0.671272 146.903 0.583135 146.752 0.580292Z" fill="#9F2122"/>
<path d="M39.9988 17.5822L42.7215 20.323L52.1458 10.8439L49.4174 8.10315L39.9988 17.5822Z" fill="#9F2122"/>
</g>
<defs>
<clipPath id="clip0_1159_442">
<rect width="211" height="28.4495" fill="white"/>
</clipPath>
</defs>
</svg>
