<svg width="92" height="24" viewBox="0 0 92 24" fill="none" xmlns="http://www.w3.org/2000/svg">
<path d="M46.1052 4.683C44.4494 3.57151 42.22 3.15754 39.2504 3.15754L33.6343 3.15479V22.0757L39.368 22.0785C41.4095 22.0785 43.1642 21.8114 44.6314 21.2122C46.1052 20.6007 47.2575 19.6299 48.0389 18.2306C48.8198 16.8324 49.2284 15.0103 49.2284 12.6924C49.2284 10.689 48.9807 9.05016 48.4664 7.73011C47.9524 6.40787 47.167 5.40496 46.1052 4.683ZM44.6014 15.9657C44.3244 16.9093 43.8817 17.6289 43.1937 18.1302C42.4374 18.6728 41.296 18.9686 39.8858 18.9686H37.8758L37.8727 6.26845L39.5602 6.27031C41.2213 6.2763 42.4511 6.54632 43.2788 7.16562C43.8837 7.62437 44.3049 8.26496 44.5804 9.13873C44.8556 10.0143 44.9779 11.1178 44.9779 12.485C44.978 13.8529 44.8779 15.0196 44.6014 15.9657Z" fill="#AEAEAE"/>
<path d="M46.1052 4.683C44.4494 3.57151 42.22 3.15754 39.2504 3.15754L33.6343 3.15479V22.0757L39.368 22.0785C41.4095 22.0785 43.1642 21.8114 44.6314 21.2122C46.1052 20.6007 47.2575 19.6299 48.0389 18.2306C48.8198 16.8324 49.2284 15.0103 49.2284 12.6924C49.2284 10.689 48.9807 9.05016 48.4664 7.73011C47.9524 6.40787 47.167 5.40496 46.1052 4.683ZM44.6014 15.9657C44.3244 16.9093 43.8817 17.6289 43.1937 18.1302C42.4374 18.6728 41.296 18.9686 39.8858 18.9686H37.8758L37.8727 6.26845L39.5602 6.27031C41.2213 6.2763 42.4511 6.54632 43.2788 7.16562C43.8837 7.62437 44.3049 8.26496 44.5804 9.13873C44.8556 10.0143 44.9779 11.1178 44.9779 12.485C44.978 13.8529 44.8779 15.0196 44.6014 15.9657Z" fill="#AEAEAE"/>
<path d="M51.8909 22.0757H56.1376V14.012H61.0462V10.9292H56.1376V6.26934L63.7207 6.27023V3.15479H51.8909V22.0757Z" fill="#AEAEAE"/>
<path d="M66.4082 22.0757H70.6605V3.15479H66.4082C66.4082 3.15479 66.3764 22.0757 66.4082 22.0757Z" fill="#AEAEAE"/>
<path d="M89.3467 3.15479H85.0779V14.012L77.1765 3.15479H73.7722V22.0757H78.0434V10.9322L85.8591 22.0757H89.3467V3.15479Z" fill="#AEAEAE"/>
<path d="M51.8909 22.0757H56.1376V14.012H61.0462V10.9292H56.1376V6.26934L63.7207 6.27023V3.15479H51.8909V22.0757Z" fill="#AEAEAE"/>
<path d="M89.3467 3.15479H85.0779V14.012L77.1765 3.15479H73.7722V22.0757H78.0434V10.9322L85.8591 22.0757H89.3467V3.15479Z" fill="#AEAEAE"/>
<path d="M17.5912 22.7972C17.2342 22.6514 16.876 22.3735 15.9152 20.7273L14.0006 17.4969L11.7438 13.6895L11.5524 13.3657C11.6629 13.3341 11.7712 13.2977 11.8786 13.2613C14.4692 12.3573 15.9814 9.94402 15.9814 6.5005C15.9814 4.79887 15.3052 3.22726 14.0139 2.05124C13.8257 1.8885 13.6312 1.73329 13.4232 1.59153C11.6994 0.434376 9.37789 0.00267184 6.28556 0.00267184L0.437566 0H0.434781V0.00129544H0.348691C-0.0314741 -0.00331956 -0.0673582 0.219091 0.081748 0.420774C0.216373 0.599949 0.368582 0.839524 0.434781 1.44798V20.445C0.368901 21.2187 0.214304 21.4652 0.081748 21.6432C-0.0689495 21.8443 -0.00235299 22.0746 0.377732 22.0698H4.70802V14.0119H6.67607L8.05869 16.4019L9.79736 19.4086L10.6425 20.8703C11.7164 22.7095 12.6562 23.7289 14.5269 23.9466C14.7821 23.9806 15.0543 23.9972 15.3477 24C15.3706 24 15.6146 24 15.6372 24C16.31 24 16.9669 23.7252 17.3757 23.5484C17.4314 23.5273 17.4854 23.5055 17.5391 23.4812C18.0299 23.2597 17.894 22.9198 17.5912 22.7972ZM7.459 10.9291H4.85314H4.70786V3.15609H7.459C8.82077 3.15609 9.8591 3.33575 10.6368 4.05464C10.9241 4.33154 11.1462 4.66608 11.3037 5.06994C11.4946 5.55953 11.5907 6.14863 11.5907 6.85845C11.5908 7.89107 11.4976 10.9291 7.459 10.9291Z" fill="#AEAEAE"/>
<path d="M23.1597 14.0148H28.0792V10.9324H23.1597V6.26077H30.7394V3.15747H18.9045V22.0781H30.7417V18.9411H23.1597V14.0148Z" fill="#AEAEAE"/>
<path d="M91.0474 20.1868C91.5508 20.1868 92 20.5558 92 21.1288C92 21.7042 91.5508 22.0757 91.0474 22.0757C90.5435 22.0757 90.0947 21.7042 90.0947 21.1288C90.0947 20.5558 90.5435 20.1868 91.0474 20.1868ZM91.0474 21.8734C91.4319 21.8734 91.7471 21.5606 91.7471 21.1288C91.7471 20.6998 91.4319 20.3891 91.0474 20.3891C90.6578 20.3891 90.3478 20.6998 90.3478 21.1288C90.3478 21.5606 90.6579 21.8734 91.0474 21.8734ZM90.6776 20.5987H91.0697C91.3303 20.5987 91.4767 20.6816 91.4767 20.9119C91.4767 21.1058 91.3552 21.1818 91.2036 21.1943L91.4816 21.6564H91.2657L91.0125 21.2044H90.8837V21.6564H90.6775V20.5987H90.6776ZM90.8837 21.0401H91.0673C91.1864 21.0401 91.2707 21.0227 91.2707 20.8937C91.2707 20.7828 91.1516 20.7625 91.0573 20.7625H90.8839V21.0401H90.8837Z" fill="#AEAEAE"/>
</svg>
