<svg width="110" height="20" viewBox="0 0 110 20" fill="none" xmlns="http://www.w3.org/2000/svg">
<g clip-path="url(#clip0_1159_364)">
<path d="M0 0.637939V10.3184V19.9987H2.14213H4.28425V16.8362V13.6734L5.53944 13.6881L6.79446 13.7027L8.63702 16.8508L10.4794 19.9987H12.9382H15.3969L13.2548 16.4218C12.0766 14.4544 11.1199 12.8415 11.1287 12.8377C11.8539 12.5198 12.6014 12.0179 13.123 11.4985C13.9296 10.6956 14.4099 9.78166 14.6779 8.54042C14.8144 7.90821 14.815 6.27196 14.6789 5.58863C14.1407 2.88543 12.3354 1.30192 9.19179 0.776013C8.72808 0.698435 8.02695 0.682045 4.32496 0.661728L0 0.637939ZM4.28425 4.40868H6.04207C7.904 4.40868 8.28338 4.4446 8.90729 4.68017C9.31507 4.83414 9.79881 5.20735 10.0205 5.53889C10.3283 5.99934 10.4256 6.33083 10.4548 7.01845C10.4977 8.03182 10.3068 8.60506 9.73547 9.17889C9.3476 9.56843 8.99807 9.76675 8.42352 9.92332C8.04169 10.0274 7.81717 10.0414 6.18242 10.0637C5.18319 10.0773 4.34734 10.0697 4.32496 10.0468C4.30259 10.0238 4.28425 8.74595 4.28425 7.20692V4.40868Z" fill="#AEAEAE"/>
<path d="M19.4153 10.3231V0.647461H25.9503H32.4853V2.52809V4.40871H28.0925H23.6997V6.39836V8.388H27.5502H31.4007V10.2686V12.1493H27.5502H23.6997V14.2207V16.2921H26.574C28.1549 16.2921 29.4483 16.3038 29.4483 16.3182C29.4483 16.3425 28.159 18.8143 27.7205 19.6305L27.523 19.9981L23.4692 19.9984L19.4153 19.9988V10.3231Z" fill="#AEAEAE"/>
<path d="M32.0134 19.9314C32.0288 19.8936 34.3097 15.5454 37.0819 10.2688L42.1223 0.67488L44.7397 0.660726C46.8274 0.649435 47.3514 0.660469 47.3291 0.715236C47.3136 0.753003 45.0322 5.10116 42.2591 10.3778L37.2172 19.9717L34.6012 19.9859C32.5147 19.9972 31.9909 19.9861 32.0134 19.9314Z" fill="#AEAEAE"/>
<path d="M47.4534 14.546V9.09326L49.6566 4.89762C50.8684 2.59001 51.8768 0.701972 51.8974 0.701972C51.918 0.701972 52.1557 1.01473 52.4257 1.39699C52.8868 2.04991 55.175 5.30055 55.9559 6.41198C56.1508 6.68931 56.3247 6.91525 56.3424 6.91408C56.3601 6.91291 57.3508 5.50276 58.5439 3.78041L60.7132 0.648865L62.9503 0.648163L65.1874 0.647461V10.3231V19.9988H63.0995H61.0115V14.0026C61.0115 10.7047 60.9932 8.0074 60.9708 8.00859C60.9485 8.00978 59.9061 9.35995 58.6544 11.009C57.0135 13.1708 56.3526 14.0027 56.2851 13.9913C56.2336 13.9825 55.1711 12.6394 53.924 11.0065L51.6564 8.03766L51.6426 14.0182L51.6288 19.9988H49.5411H47.4534V14.546Z" fill="#AEAEAE"/>
<path d="M75.7759 0.53833L75.7166 0.688381C75.684 0.770829 74.8779 2.93547 73.9254 5.49884C72.9729 8.06221 71.3737 12.3623 70.3717 15.0545C69.3696 17.7468 68.5498 19.9606 68.5498 19.9741C68.5498 19.9877 69.5198 19.9985 70.7055 19.9982L72.8614 19.9979L73.0871 19.3578C73.2113 19.0058 73.5382 18.0738 73.8133 17.2868L74.3137 15.856H77.7227C79.5977 15.856 81.1318 15.8623 81.1318 15.8702C81.1318 15.909 82.5862 19.9525 82.6081 19.9745C82.6221 19.9885 83.6237 19.9936 84.834 19.9858L87.0343 19.9715L85.5744 16.0467C84.7715 13.888 83.1448 9.51558 81.9596 6.3301L79.8048 0.53833H77.7904H75.7759ZM77.7135 6.30283C77.7433 6.26722 79.782 12.0548 79.7776 12.1628C79.7767 12.1853 78.8486 12.2037 77.7151 12.2037C76.5817 12.2037 75.6538 12.1853 75.6533 12.1628C75.6518 12.1013 77.6737 6.35016 77.7135 6.30283Z" fill="#AEAEAE"/>
<path d="M89.1796 19.2499C94.6727 10.2093 94.6938 10.1736 94.6103 10.0455C94.4264 9.76349 88.9956 0.699421 88.9956 0.674614C88.9956 0.65968 90.0884 0.647461 91.424 0.647461H93.8525L95.5135 3.68475C96.4271 5.35526 97.1953 6.72899 97.2207 6.73748C97.246 6.74598 98.0199 5.39759 98.9405 3.74108C99.861 2.08456 100.631 0.710569 100.652 0.687764C100.672 0.664959 101.754 0.652694 103.056 0.660508L105.423 0.674716L103.794 3.34575C102.898 4.81482 101.625 6.89986 100.967 7.97917C100.308 9.05849 99.7452 9.9811 99.7159 10.0294C99.6609 10.1202 99.7651 10.3047 101.252 12.7489C101.571 13.2735 102.657 15.0642 103.665 16.7282C104.673 18.3921 105.534 19.809 105.578 19.8767L105.658 19.9999L103.2 19.9858L100.743 19.9716L98.9688 16.7844C97.9932 15.0315 97.1739 13.5902 97.148 13.5815C97.1222 13.5729 96.9487 13.8419 96.7626 14.1794C96.5765 14.5169 95.7694 15.9582 94.9692 17.3823L93.5141 19.9716L91.119 19.9858L88.7239 20L89.1796 19.2499Z" fill="#AEAEAE"/>
<path d="M107.728 8.02395e-05C107.368 0.00397521 107.008 0.149544 106.724 0.435761C106.029 1.13432 106.316 2.41637 107.241 2.74658C107.566 2.86259 108.015 2.85138 108.305 2.7198C109.239 2.29504 109.461 1.11749 108.738 0.414135C108.45 0.134091 108.089 -0.00381474 107.728 8.02395e-05ZM107.775 0.21817C108.187 0.223357 108.578 0.463731 108.796 0.89024C108.879 1.05235 108.91 1.28097 108.894 1.50741C108.877 1.73386 108.813 1.95819 108.708 2.11161C108.621 2.23686 108.451 2.39747 108.33 2.46694C107.915 2.70687 107.491 2.68548 107.092 2.40423C106.367 1.89186 106.432 0.788904 107.213 0.361734C107.396 0.261953 107.588 0.215812 107.775 0.21817Z" fill="#AEAEAE"/>
<path d="M107.217 0.647461V1.43781V2.22832H107.488V1.57405H107.677C107.894 1.57405 107.997 1.69734 108.054 2.02387C108.069 2.11023 108.094 2.22965 108.132 2.22926L108.226 2.22832L108.342 2.22832C108.359 2.21357 108.346 2.16931 108.335 2.13284C108.32 2.08037 108.281 1.93404 108.249 1.80761C108.216 1.68119 108.209 1.59699 108.142 1.5441C108.105 1.51451 108.037 1.46701 108.044 1.44364C108.052 1.42027 108.087 1.4089 108.153 1.35646C108.356 1.1959 108.358 0.918679 108.158 0.760416C108.043 0.669346 107.938 0.647461 107.616 0.647461L107.217 0.647461ZM107.488 0.810987H107.678C107.873 0.810987 108.085 0.962383 108.085 1.10227C108.085 1.1426 108.04 1.21618 107.985 1.2658C107.931 1.31542 107.797 1.35613 107.687 1.35613H107.488V1.08347V0.810987Z" fill="#AEAEAE"/>
</g>
<defs>
<clipPath id="clip0_1159_364">
<rect width="109.167" height="20" fill="white"/>
</clipPath>
</defs>
</svg>
