<svg width="203" height="86" viewBox="0 0 203 86" fill="none" xmlns="http://www.w3.org/2000/svg">
<path d="M37.44 84V88H41.44V84H37.44ZM37.44 2.4H41.44V-1.6H37.44V2.4ZM20.64 2.4V-1.6H16.64V2.4H20.64ZM0.84 17.16V13.16H-3.16V17.16H0.84ZM0.84 32.4H-3.16V36.4H0.84V32.4ZM18.12 32.4H22.12V28.4H18.12V32.4ZM18.12 84H14.12V88H18.12V84ZM41.44 84V2.4H33.44V84H41.44ZM37.44 -1.6H20.64V6.4H37.44V-1.6ZM16.64 2.4C16.64 7.1259 15.7608 9.23551 14.2589 10.4832C12.4945 11.949 8.81678 13.16 0.84 13.16V21.16C9.06323 21.16 15.2855 20.031 19.3711 16.6368C23.7192 13.0245 24.64 7.75409 24.64 2.4H16.64ZM-3.16 17.16V32.4H4.84V17.16H-3.16ZM0.84 36.4H18.12V28.4H0.84V36.4ZM14.12 32.4V84H22.12V32.4H14.12ZM18.12 88H37.44V80H18.12V88ZM87.4369 89.8C99.5014 89.8 109.278 85.7074 115.926 77.393C122.455 69.228 125.517 57.5467 125.517 43.2H117.517C117.517 56.5733 114.639 66.192 109.678 72.397C104.836 78.4526 97.5724 81.8 87.4369 81.8V89.8ZM125.517 43.2C125.517 28.8533 122.455 17.172 115.926 9.00701C109.278 0.692571 99.5014 -3.40001 87.4369 -3.40001V4.59999C97.5724 4.59999 104.836 7.94742 109.678 14.003C114.639 20.208 117.517 29.8267 117.517 43.2H125.517ZM87.4369 -3.40001C75.3724 -3.40001 65.5958 0.692571 58.9478 9.00701C52.4192 17.172 49.3569 28.8533 49.3569 43.2H57.3569C57.3569 29.8267 60.2345 20.208 65.196 14.003C70.0379 7.94742 77.3014 4.59999 87.4369 4.59999V-3.40001ZM49.3569 43.2C49.3569 57.5467 52.4192 69.228 58.9478 77.393C65.5958 85.7074 75.3724 89.8 87.4369 89.8V81.8C77.3014 81.8 70.0379 78.4526 65.196 72.397C60.2345 66.192 57.3569 56.5733 57.3569 43.2H49.3569ZM87.4369 66.2C85.3418 66.2 83.7426 65.7809 82.4869 65.0834C81.2422 64.3919 80.114 63.3044 79.1354 61.6203C77.0944 58.108 75.8369 52.2248 75.8369 43.2H67.8369C67.8369 52.6552 69.0993 60.272 72.2184 65.6397C73.8198 68.3956 75.9315 70.5931 78.6018 72.0766C81.2612 73.5541 84.2519 74.2 87.4369 74.2V66.2ZM75.8369 43.2C75.8369 34.2405 77.0928 28.3516 79.1383 24.8196C80.1204 23.1238 81.2528 22.0251 82.4997 21.3264C83.7553 20.6228 85.3509 20.2 87.4369 20.2V12.2C84.2429 12.2 81.2484 12.8572 78.589 14.3474C75.921 15.8424 73.8134 18.0512 72.2154 20.8104C69.1009 26.1884 67.8369 33.7995 67.8369 43.2H75.8369ZM87.4369 20.2C89.5229 20.2 91.1184 20.6228 92.374 21.3264C93.621 22.0251 94.7534 23.1238 95.7354 24.8196C97.7809 28.3516 99.0369 34.2405 99.0369 43.2H107.037C107.037 33.7995 105.773 26.1884 102.658 20.8104C101.06 18.0512 98.9528 15.8424 96.2847 14.3474C93.6253 12.8572 90.6309 12.2 87.4369 12.2V20.2ZM99.0369 43.2C99.0369 52.1595 97.7809 58.0484 95.7354 61.5804C94.7534 63.2762 93.621 64.3749 92.374 65.0736C91.1184 65.7772 89.5229 66.2 87.4369 66.2V74.2C90.6309 74.2 93.6253 73.5428 96.2847 72.0526C98.9528 70.5576 101.06 68.3488 102.658 65.5896C105.773 60.2116 107.037 52.6005 107.037 43.2H99.0369ZM148.003 84V88H150.249L151.418 86.0822L148.003 84ZM164.683 56.64L168.098 54.5578L164.683 48.9557L161.268 54.5578L164.683 56.64ZM181.363 84L177.948 86.0822L179.117 88H181.363V84ZM202.723 84V88H210.032L206.092 81.8438L202.723 84ZM175.843 42L172.474 39.8438L171.094 42L172.474 44.1562L175.843 42ZM202.723 -5.72205e-06L206.092 2.15621L210.032 -4.00001H202.723V-5.72205e-06ZM181.363 -5.72205e-06V-4.00001H179.112L177.944 -2.07553L181.363 -5.72205e-06ZM164.683 27.48L161.264 29.5555L164.683 35.1889L168.103 29.5555L164.683 27.48ZM148.003 -5.72205e-06L151.423 -2.07553L150.254 -4.00001H148.003V-5.72205e-06ZM126.643 -5.72205e-06V-4.00001H119.334L123.274 2.15621L126.643 -5.72205e-06ZM153.523 42L156.892 44.1562L158.272 42L156.892 39.8438L153.523 42ZM126.643 84L123.274 81.8438L119.334 88H126.643V84ZM151.418 86.0822L168.098 58.7222L161.268 54.5578L144.588 81.9178L151.418 86.0822ZM161.268 58.7222L177.948 86.0822L184.778 81.9178L168.098 54.5578L161.268 58.7222ZM181.363 88H202.723V80H181.363V88ZM206.092 81.8438L179.212 39.8438L172.474 44.1562L199.354 86.1562L206.092 81.8438ZM179.212 44.1562L206.092 2.15621L199.354 -2.15622L172.474 39.8438L179.212 44.1562ZM202.723 -4.00001H181.363V3.99999H202.723V-4.00001ZM177.944 -2.07553L161.264 25.4045L168.103 29.5555L184.783 2.07552L177.944 -2.07553ZM168.103 25.4045L151.423 -2.07553L144.584 2.07552L161.264 29.5555L168.103 25.4045ZM148.003 -4.00001H126.643V3.99999H148.003V-4.00001ZM123.274 2.15621L150.154 44.1562L156.892 39.8438L130.012 -2.15622L123.274 2.15621ZM150.154 39.8438L123.274 81.8438L130.012 86.1562L156.892 44.1562L150.154 39.8438ZM126.643 88H148.003V80H126.643V88Z" fill="#9F2122"/>
</svg>
