<svg width="87" height="23" viewBox="0 0 87 23" fill="none" xmlns="http://www.w3.org/2000/svg">
<g clip-path="url(#clip0_1159_379)">
<path d="M67.0466 0.000488281C68.2877 0.000488281 69.2942 1.00964 69.2942 2.25451C69.2942 3.49939 68.2877 4.50854 67.0466 4.50854C65.8054 4.50854 64.7993 3.49939 64.7993 2.25451C64.7993 1.00964 65.8054 0.000488281 67.0466 0.000488281Z" fill="#AEAEAE"/>
<path d="M22.9255 22.8126C19.6543 22.8126 18.034 20.9373 18.034 17.8125V9.56242H15.074V6.34405H18.034V2.21902L21.9284 1.25V6.34405H26.0095V9.56242H21.9284V17.4688C21.9284 18.7188 22.4893 19.2498 23.7355 19.2498C24.5454 19.2498 25.1996 19.2191 26.2589 19.094V22.3751C25.1685 22.6564 24.0781 22.8126 22.9255 22.8126Z" fill="#AEAEAE"/>
<path d="M36.8372 9.81248C34.0959 9.81248 32.6625 11.7809 32.6625 14.4062V22.5936H28.7371V6.34397H32.0394L32.382 8.78112C33.1302 6.90621 35.0616 6.125 36.9619 6.125C37.3671 6.125 37.7723 6.15617 38.1771 6.2189V9.96872C37.7408 9.87521 37.2735 9.81248 36.8372 9.81248Z" fill="#AEAEAE"/>
<path d="M50.8316 22.5936L50.5511 20.4689C49.7722 22.0625 47.9651 23 45.909 23C42.4505 23 40.3008 20.6564 40.3008 17.1875V6.34399H44.1951V16.3123C44.1951 18.2188 44.9433 19.4064 46.9994 19.4064C47.903 19.4064 48.5261 19.0624 48.9934 18.5936C49.928 17.7185 50.1774 16.25 50.1774 14.9377V6.34399H54.0717V22.5936H50.8316Z" fill="#AEAEAE"/>
<path d="M61.0458 22.781C58.3972 22.781 56.6216 21.4999 56.6216 18.4062V0H60.547V17.7501C60.547 18.6875 60.7649 19.3121 62.1047 19.3121C62.4477 19.3121 62.541 19.2813 62.7589 19.2813V22.5621C61.9804 22.7187 61.8246 22.781 61.0458 22.781Z" fill="#AEAEAE"/>
<path d="M65.0684 22.5936V6.34399H69.0252V22.5936H65.0684Z" fill="#AEAEAE"/>
<path d="M81.2135 15.3748L77.1008 15.6873C75.9172 15.7812 74.7642 16.4997 74.7642 17.8123C74.7642 19.0623 75.8546 19.8435 77.0697 19.8435C79.5 19.8435 81.2135 18.5308 81.2135 16.1248V15.3748ZM84.4851 22.8437C82.8026 22.8437 81.8676 21.7811 81.7433 20.5624C80.9955 21.875 79.1263 22.9999 76.8207 22.9999C72.9571 22.9999 70.9631 20.5624 70.9631 17.9062C70.9631 14.8125 73.3623 13.0311 76.4466 12.8122L81.2135 12.4685V11.4687C81.2135 9.93747 80.684 8.90611 78.4717 8.90611C76.665 8.90611 75.6056 9.71849 75.512 11.2186H71.7424C71.9603 7.56227 74.8578 5.9375 78.4717 5.9375C81.2449 5.9375 83.6126 6.81261 84.5472 9.24977C84.9524 10.2811 85.0145 11.4372 85.0145 12.5312V18.5624C85.0145 19.312 85.2635 19.5937 85.9181 19.5937C86.1675 19.5937 86.4165 19.531 86.4165 19.531V22.4061C85.7623 22.6874 85.4197 22.8437 84.4851 22.8437Z" fill="#AEAEAE"/>
<path d="M6.07072 9.27364C4.5837 9.27364 3.37869 8.065 3.37869 6.57349C3.37869 5.08237 4.5837 3.87373 6.07072 3.87373C7.55737 3.87373 8.76276 5.08237 8.76276 6.57349C8.76276 8.065 7.55737 9.27364 6.07072 9.27364ZM6.05169 0C2.47513 0.0198713 0.166504 2.42741 0.166504 6.06775C0.166504 9.08116 2.12629 11.6582 3.2435 15.5759C3.88291 17.8194 4.22709 20.566 4.40733 22.5936H7.69605C7.87629 20.566 8.22047 17.8194 8.85988 15.5759C9.97709 11.6582 11.9369 9.08116 11.9369 6.06775C11.9369 2.42741 9.62825 0.0202609 6.05169 0Z" fill="#AEAEAE"/>
</g>
<defs>
<clipPath id="clip0_1159_379">
<rect width="86.25" height="23" fill="white" transform="translate(0.166504)"/>
</clipPath>
</defs>
</svg>
