<svg width="48" height="48" viewBox="0 0 48 48" fill="none" xmlns="http://www.w3.org/2000/svg">
<path d="M14.6666 9.33334H10.6666C10.313 9.33334 9.97382 9.47382 9.72378 9.72387C9.47373 9.97392 9.33325 10.3131 9.33325 10.6667V37.3333C9.33325 37.687 9.47373 38.0261 9.72378 38.2762C9.97382 38.5262 10.313 38.6667 10.6666 38.6667H14.6666V9.33334Z" fill="#99182A" fill-opacity="0.6"/>
<path d="M17.3333 38.6667H30.6666V9.33334H17.3333V38.6667ZM23.9999 33.3333C23.6463 33.3333 23.3072 33.1929 23.0571 32.9428C22.8071 32.6928 22.6666 32.3536 22.6666 32C22.6666 31.6464 22.8071 31.3072 23.0571 31.0572C23.3072 30.8071 23.6463 30.6667 23.9999 30.6667C24.3535 30.6667 24.6927 30.8071 24.9427 31.0572C25.1928 31.3072 25.3333 31.6464 25.3333 32C25.3333 32.3536 25.1928 32.6928 24.9427 32.9428C24.6927 33.1929 24.3535 33.3333 23.9999 33.3333ZM23.9999 14.6667C24.3535 14.6667 24.6927 14.8072 24.9427 15.0572C25.1928 15.3072 25.3333 15.6464 25.3333 16C25.3333 16.3536 25.1928 16.6928 24.9427 16.9428C24.6927 17.1929 24.3535 17.3333 23.9999 17.3333C23.6463 17.3333 23.3072 17.1929 23.0571 16.9428C22.8071 16.6928 22.6666 16.3536 22.6666 16C22.6666 15.6464 22.8071 15.3072 23.0571 15.0572C23.3072 14.8072 23.6463 14.6667 23.9999 14.6667ZM23.9999 22.6667C24.3535 22.6667 24.6927 22.8072 24.9427 23.0572C25.1928 23.3072 25.3333 23.6464 25.3333 24C25.3333 24.3536 25.1928 24.6928 24.9427 24.9428C24.6927 25.1929 24.3535 25.3333 23.9999 25.3333C23.6463 25.3333 23.3072 25.1929 23.0571 24.9428C22.8071 24.6928 22.6666 24.3536 22.6666 24C22.6666 23.6464 22.8071 23.3072 23.0571 23.0572C23.3072 22.8072 23.6463 22.6667 23.9999 22.6667Z" fill="#99182A"/>
<path d="M37.3333 9.33334H33.3333V38.6667H37.3333C37.6869 38.6667 38.026 38.5262 38.2761 38.2762C38.5261 38.0261 38.6666 37.687 38.6666 37.3333V10.6667C38.6666 10.3131 38.5261 9.97392 38.2761 9.72387C38.026 9.47382 37.6869 9.33334 37.3333 9.33334Z" fill="#EB808F" fill-opacity="0.6"/>
</svg>
