<svg width="111" height="23" viewBox="0 0 111 23" fill="none" xmlns="http://www.w3.org/2000/svg">
<g clip-path="url(#clip0_1159_375)">
<path d="M68.6701 15.5762C68.6701 11.3206 72.1049 8.16917 76.3055 8.16917C80.4663 8.16917 83.9011 11.3206 83.9011 15.5762C83.9011 19.8433 80.4663 23 76.3055 23C72.1049 22.9947 68.6701 19.8433 68.6701 15.5762ZM42.7353 3.10849V3.9711C42.7353 4.29315 42.6663 4.39135 42.6034 4.52318L34.4722 18.3596C34.4554 18.3826 34.466 18.4171 34.5014 18.4171H43.1611V22.5346H27.5671V21.7295C27.5671 21.373 27.6132 21.2987 27.8088 20.9421L35.8479 7.29506C35.8647 7.26674 35.8532 7.23755 35.8187 7.23755H27.8141V3.10849H42.7353ZM92.837 22.5293H88.6718L84.1428 8.52572H88.6196L89.9147 12.7645C90.3459 14.1677 91.0709 16.8015 91.0709 16.8015C91.0824 16.836 91.1284 16.8299 91.1337 16.8015C91.1337 16.8015 91.8818 14.1155 92.3085 12.7645L93.6665 8.52572H96.9694L98.3044 12.7645C98.7532 14.2137 99.4553 16.8015 99.4553 16.8015C99.4659 16.836 99.5066 16.836 99.5243 16.8015C99.5243 16.8015 100.249 14.1845 100.68 12.7645L101.976 8.52572H106.135L101.636 22.5293H97.5448L96.4285 19.0098C96.0018 17.6297 95.2485 14.9498 95.2485 14.9498C95.237 14.9153 95.1909 14.9153 95.1856 14.9498C95.1856 14.9498 94.4314 17.5775 93.9772 18.9868L92.837 22.5293ZM50.5788 22.5293H46.0497V8.52572H50.5788V22.5293ZM54.0136 1.12402H58.5426V22.5293H54.0136V1.12402ZM61.8969 1.12402H66.4259V22.5293H61.8969V1.12402ZM79.5571 15.5762C79.5571 13.4944 78.0663 12.0735 76.3055 12.0735C74.5049 12.0735 73.0141 13.4944 73.0141 15.5762C73.0141 17.6757 74.5049 19.078 76.3055 19.078C78.0663 19.0789 79.5571 17.6757 79.5571 15.5762ZM108.391 5.16727C107.459 5.16727 106.699 5.92637 106.699 6.858C106.699 7.78962 107.459 8.54873 108.391 8.54873C109.323 8.54873 110.083 7.78962 110.083 6.858C110.083 5.92637 109.323 5.16727 108.391 5.16727ZM108.391 8.22137C107.638 8.22137 107.027 7.61179 107.027 6.858C107.027 6.10509 107.637 5.4955 108.391 5.4955C109.145 5.4955 109.755 6.10509 109.755 6.858C109.755 7.61179 109.145 8.22137 108.391 8.22137ZM108.489 5.84586C108.881 5.84586 109.162 6.1334 109.162 6.53064C109.162 6.83499 108.996 7.07122 108.748 7.16854L109.134 7.80112H108.766L108.408 7.21454H108.092V7.80112H107.77V5.84586H108.489ZM108.472 6.1334H108.092V6.92701H108.472C108.685 6.92701 108.84 6.75979 108.84 6.53064C108.84 6.30061 108.685 6.1334 108.472 6.1334ZM48.3116 1.50977C49.7209 1.50977 50.8895 2.64842 50.8895 4.05161C50.8895 5.45481 49.7209 6.59346 48.3116 6.59346C46.9014 6.59346 45.7337 5.45481 45.7337 4.05161C45.7328 2.64842 46.9014 1.50977 48.3116 1.50977Z" fill="#AEAEAE"/>
<path d="M5.74682 20.1665C5.66062 20.2126 5.59041 20.2011 5.52109 20.1318L3.59166 17.8341C3.54011 17.7701 3.53389 17.7355 3.60321 17.6378C5.0945 15.4555 8.13839 12.0546 10.0794 10.6175C10.114 10.5944 10.1025 10.5651 10.0616 10.5828C8.03974 11.241 2.29234 13.7119 0.166504 14.9128V22.7174H20.8534V15.2015C18.0344 15.6802 9.58879 18.192 5.74682 20.1665ZM14.1577 6.12588C14.2617 6.10279 14.3079 6.13742 14.371 6.2067C14.7292 6.60462 15.8739 8.00175 16.1849 8.38278C16.2427 8.45206 16.2027 8.52756 16.1565 8.56753C13.8458 10.3688 11.2747 12.9206 9.84208 14.7449C9.81364 14.7858 9.83675 14.7858 9.85986 14.7796C12.3554 13.7057 18.2183 11.9906 20.8587 11.5119V8.16962L10.5246 0L0.172725 8.1634V11.8174C3.37837 9.91314 10.7957 6.96256 14.1577 6.12588Z" fill="#AEAEAE"/>
</g>
<defs>
<clipPath id="clip0_1159_375">
<rect width="110.208" height="23" fill="white" transform="translate(0.166504)"/>
</clipPath>
</defs>
</svg>
